<svg height="512" viewBox="0 0 64 64" width="512" xmlns="http://www.w3.org/2000/svg" fill="#0B2D4A"><path d="m36 29c-1.6542969 0-3 1.3457031-3 3s1.3457031 3 3 3 3-1.3457031 3-3-1.3457031-3-3-3zm0 4c-.5512695 0-1-.4482422-1-1s.4487305-1 1-1 1 .4482422 1 1-.4487305 1-1 1zm24 25h-7v-53c0-.5527344-.4477539-1-1-1h-9v-1c0-.2773438-.1152344-.5429688-.3183594-.7314453-.2036133-.1894531-.4741211-.2910156-.7529297-.265625l-28 2c-.5234375.0371094-.9287109.4726562-.9287109.9970703v53h-9c-.5522461 0-1 .4472656-1 1s.4477539 1 1 1h9.9697266l27.9589844 1.9970703c.0239257.0019531.0478515.0029297.071289.0029297.2519531 0 .4956055-.0957031.6816406-.2685547.203125-.1884765.3183594-.4541015.3183594-.7314453v-1h9 8c.5522461 0 1-.4472656 1-1s-.4477539-1-1-1zm-17-48h4v44h-4zm-2 49.9257813-26-1.8564453v-52.1386719l26-1.8564453v.9257812 54zm2-3.9257813h5c.5522461 0 1-.4472656 1-1v-46c0-.5527344-.4477539-1-1-1h-5v-2h8v52h-8z"></path></svg>
